<svg xmlns="http://www.w3.org/2000/svg" width="128" height="128" viewBox="0 0 128 128">
  <defs>
    <linearGradient id="grad1" x1="0%" y1="0%" x2="100%" y2="100%">
      <stop offset="0%" style="stop-color:#007bff;stop-opacity:1" />
      <stop offset="100%" style="stop-color:#0056b3;stop-opacity:1" />
    </linearGradient>
  </defs>
  <rect width="128" height="128" rx="28" fill="url(#grad1)"/>
  <path d="M45 75c0-9.4 7.6-17 17-17h6v8h-6c-5 0-9 4-9 9s4 9 9 9h6v8h-6c-9.4 0-17-7.6-17-17zm22-4h14v8H67v-8zm16-13h6c9.4 0 17 7.6 17 17s-7.6 17-17 17h-6v-8h6c5 0 9-4 9-9s-4-9-9-9h-6v-8z" fill="white"/>
  <circle cx="95" cy="95" r="22" fill="#ff5722" stroke="white" stroke-width="4"/>
  <path d="M95 85v12M95 105h.01" stroke="white" stroke-width="4" stroke-linecap="round"/>
</svg>
